# xmcd CD database file
#
# Track frame offsets:
#	150
#	14365
#	30537
#	53752
#	67207
#	82067
#	105202
#	119310
#	134852
#	149667
#	160567
#	175432
#
# Disc length: 2421 seconds
#
# Revision: 1
# Processed by: cddbd v1.5.1PL0 Copyright (c) Steve Scherf et al.
# Submitted via: CDex 1.51
#
DISCID=aa09730c
DTITLE=Quim Vila i Eutanàsia col·lectiva - Verbaquim 700
DYEAR=2003
DGENRE=Jazz
TTITLE0=L'home del sac del veïnat
TTITLE1=Déu és vici
TTITLE2=La festa
TTITLE3=No ho puc sofrir
TTITLE4=Metoignomínia
TTITLE5=Storyboard
TTITLE6=Què cony vols?
TTITLE7=Fes-te fotre
TTITLE8=Qui dorm amb canalla, mullat troba el llit
TTITLE9=Zàping
TTITLE10=M'ho ha dit la veu
TTITLE11=La missa del gall
EXTD=YEAR: 2003
EXTT0=
EXTT1=
EXTT2=
EXTT3=
EXTT4=
EXTT5=
EXTT6=
EXTT7=
EXTT8=
EXTT9=
EXTT10=
EXTT11=
PLAYORDER=
